# xmcd
#
# Track frame offsets:
#	150
#	14915
#	30160
#	45098
#	60608
#	76041
#	92356
#	107613
#	121805
#	136735
#	151868
#	166158
#	180762
#	195121
#	208031
#	220983
#	235861
#	251122
#	266038
#	281222
#	295981
#	308458
#	321584
#
# Disc length: 4472 seconds
#
# Revision: 1
# Processed by: cddbd v1.5.2PL0 Copyright (c) Steve Scherf et al.
# Submitted via: EasyCDDAExtractor 9.1.3.1
#
DISCID=2a117617
DTITLE=Tom Darby and Jimmie Tarlton - Darby and Tarlton - Disc C (Atlanta and NY 193
DTITLE=0-33)
DYEAR=2005
DGENRE=Country
TTITLE0=Pork Chops
TTITLE1=On The Banks Of A Lonely River
TTITLE2=Faithless Husband
TTITLE3=Hard Time Blues
TTITLE4=Rising Sun Blues
TTITLE5=My Little Blue Heaven
TTITLE6=Careless Love
TTITLE7=By The Old Oaken Bucket, Louise
TTITLE8=Lowe Bonnie
TTITLE9=After The Sinking Of The Titanic
TTITLE10=New Birmingham Jail
TTITLE11=Roy Dixon
TTITLE12=Moonshine Blues
TTITLE13=She's Waiting For Me
TTITLE14=Goin' Down That Lonesome Frisco Line
TTITLE15=Thirteen Years In Kilbie Prison
TTITLE16=Once I Had A Fortune
TTITLE17=Dixie Mail
TTITLE18=The Weaver's Blues
TTITLE19=Sweetheart Of My Dreams
TTITLE20=Ooze Up To Me
TTITLE21=Let's Be Friends Again
TTITLE22=By The Old Oaken Bucket, Louise
EXTD=
EXTT0=
EXTT1=
EXTT2=
EXTT3=
EXTT4=
EXTT5=
EXTT6=
EXTT7=
EXTT8=
EXTT9=
EXTT10=
EXTT11=
EXTT12=
EXTT13=
EXTT14=
EXTT15=
EXTT16=
EXTT17=
EXTT18=
EXTT19=
EXTT20=
EXTT21=
EXTT22=
PLAYORDER=
